<mxfile host="app.diagrams.net" modified="2023-02-13T05:49:07.674Z" agent="5.0 (Macintosh; Intel Mac OS X 10_15_7) AppleWebKit/605.1.15 (KHTML, like Gecko) Version/16.3 Safari/605.1.15" etag="vtnBwUg3Vrpn411aVB0m" version="20.8.18" type="github" pages="2">
  <diagram name="Page-1" id="lryW137A7_xecyd_qi0n">
    <mxGraphModel dx="2190" dy="924" grid="1" gridSize="10" guides="1" tooltips="1" connect="1" arrows="1" fold="1" page="1" pageScale="1" pageWidth="827" pageHeight="1169" math="0" shadow="0">
      <root>
        <mxCell id="0" />
        <mxCell id="1" parent="0" />
        <mxCell id="WqO82yuMAQhep9-diVYG-1" style="edgeStyle=orthogonalEdgeStyle;rounded=0;orthogonalLoop=1;jettySize=auto;html=1;exitX=1;exitY=0.5;exitDx=0;exitDy=0;entryX=0;entryY=0.5;entryDx=0;entryDy=0;" edge="1" parent="1" source="WqO82yuMAQhep9-diVYG-4" target="WqO82yuMAQhep9-diVYG-6">
          <mxGeometry relative="1" as="geometry" />
        </mxCell>
        <mxCell id="WqO82yuMAQhep9-diVYG-2" style="edgeStyle=orthogonalEdgeStyle;rounded=0;orthogonalLoop=1;jettySize=auto;html=1;exitX=0.25;exitY=1;exitDx=0;exitDy=0;entryX=0;entryY=0.5;entryDx=0;entryDy=0;entryPerimeter=0;" edge="1" parent="1" source="WqO82yuMAQhep9-diVYG-4" target="WqO82yuMAQhep9-diVYG-18">
          <mxGeometry relative="1" as="geometry" />
        </mxCell>
        <mxCell id="WqO82yuMAQhep9-diVYG-4" value="Pre-Modernization Test Execution" style="shape=process;whiteSpace=wrap;html=1;backgroundOutline=1;fillColor=#fad7ac;" vertex="1" parent="1">
          <mxGeometry x="170" y="117.5" width="120" height="60" as="geometry" />
        </mxCell>
        <mxCell id="WqO82yuMAQhep9-diVYG-31" style="edgeStyle=orthogonalEdgeStyle;rounded=0;orthogonalLoop=1;jettySize=auto;html=1;exitX=1;exitY=0.5;exitDx=0;exitDy=0;entryX=0;entryY=0.5;entryDx=0;entryDy=0;" edge="1" parent="1" source="WqO82yuMAQhep9-diVYG-6" target="WqO82yuMAQhep9-diVYG-15">
          <mxGeometry relative="1" as="geometry">
            <Array as="points">
              <mxPoint x="650" y="148" />
              <mxPoint x="650" y="190" />
            </Array>
          </mxGeometry>
        </mxCell>
        <mxCell id="WqO82yuMAQhep9-diVYG-6" value="Test Results Baseline" style="shape=process;whiteSpace=wrap;html=1;backgroundOutline=1;fillColor=#fad7ac;" vertex="1" parent="1">
          <mxGeometry x="430" y="117.5" width="120" height="60" as="geometry" />
        </mxCell>
        <mxCell id="WqO82yuMAQhep9-diVYG-7" style="edgeStyle=orthogonalEdgeStyle;rounded=0;orthogonalLoop=1;jettySize=auto;html=1;exitX=1;exitY=0.5;exitDx=0;exitDy=0;entryX=0;entryY=0.5;entryDx=0;entryDy=0;" edge="1" parent="1" source="WqO82yuMAQhep9-diVYG-8" target="WqO82yuMAQhep9-diVYG-4">
          <mxGeometry relative="1" as="geometry" />
        </mxCell>
        <mxCell id="WqO82yuMAQhep9-diVYG-8" value="Baseline Test Data Provisioning" style="shape=process;whiteSpace=wrap;html=1;backgroundOutline=1;fillColor=#fad7ac;" vertex="1" parent="1">
          <mxGeometry x="10" y="117.5" width="120" height="60" as="geometry" />
        </mxCell>
        <mxCell id="WqO82yuMAQhep9-diVYG-9" style="edgeStyle=orthogonalEdgeStyle;rounded=0;orthogonalLoop=1;jettySize=auto;html=1;exitX=1;exitY=0.75;exitDx=0;exitDy=0;entryX=0;entryY=0;entryDx=0;entryDy=52.5;entryPerimeter=0;" edge="1" parent="1" source="WqO82yuMAQhep9-diVYG-12" target="WqO82yuMAQhep9-diVYG-20">
          <mxGeometry relative="1" as="geometry">
            <Array as="points">
              <mxPoint x="400" y="312.5" />
              <mxPoint x="400" y="490.5" />
            </Array>
          </mxGeometry>
        </mxCell>
        <mxCell id="WqO82yuMAQhep9-diVYG-10" style="edgeStyle=orthogonalEdgeStyle;rounded=0;orthogonalLoop=1;jettySize=auto;html=1;exitX=1;exitY=0.25;exitDx=0;exitDy=0;entryX=0;entryY=0.25;entryDx=0;entryDy=0;" edge="1" parent="1" source="WqO82yuMAQhep9-diVYG-12" target="WqO82yuMAQhep9-diVYG-14">
          <mxGeometry relative="1" as="geometry" />
        </mxCell>
        <mxCell id="WqO82yuMAQhep9-diVYG-12" value="Post-Modernization Test Execution" style="shape=process;whiteSpace=wrap;html=1;backgroundOutline=1;gradientColor=#97d077;fillColor=#d5e8d4;" vertex="1" parent="1">
          <mxGeometry x="220" y="267.5" width="120" height="60" as="geometry" />
        </mxCell>
        <mxCell id="WqO82yuMAQhep9-diVYG-30" style="edgeStyle=orthogonalEdgeStyle;rounded=0;orthogonalLoop=1;jettySize=auto;html=1;exitX=1;exitY=0.25;exitDx=0;exitDy=0;entryX=0;entryY=0.75;entryDx=0;entryDy=0;" edge="1" parent="1" source="WqO82yuMAQhep9-diVYG-14" target="WqO82yuMAQhep9-diVYG-15">
          <mxGeometry relative="1" as="geometry" />
        </mxCell>
        <mxCell id="WqO82yuMAQhep9-diVYG-14" value="Test Results Post-Modernization" style="shape=process;whiteSpace=wrap;html=1;backgroundOutline=1;gradientColor=#7ea6e0;fillColor=#dae8fc;strokeColor=#6c8ebf;" vertex="1" parent="1">
          <mxGeometry x="450" y="267.5" width="120" height="60" as="geometry" />
        </mxCell>
        <mxCell id="WqO82yuMAQhep9-diVYG-15" value="Test Results Comparison" style="shape=process;whiteSpace=wrap;html=1;backgroundOutline=1;gradientColor=#7ea6e0;fillColor=#dae8fc;strokeColor=#6c8ebf;" vertex="1" parent="1">
          <mxGeometry x="730" y="160" width="130" height="60" as="geometry" />
        </mxCell>
        <mxCell id="WqO82yuMAQhep9-diVYG-16" value="Data Comparison" style="shape=process;whiteSpace=wrap;html=1;backgroundOutline=1;gradientColor=#7ea6e0;fillColor=#dae8fc;strokeColor=#6c8ebf;" vertex="1" parent="1">
          <mxGeometry x="730" y="240" width="130" height="60" as="geometry" />
        </mxCell>
        <mxCell id="WqO82yuMAQhep9-diVYG-17" style="edgeStyle=orthogonalEdgeStyle;rounded=0;orthogonalLoop=1;jettySize=auto;html=1;exitX=0.5;exitY=0;exitDx=0;exitDy=0;exitPerimeter=0;entryX=0.25;entryY=1;entryDx=0;entryDy=0;" edge="1" parent="1" source="WqO82yuMAQhep9-diVYG-18" target="WqO82yuMAQhep9-diVYG-16">
          <mxGeometry relative="1" as="geometry" />
        </mxCell>
        <mxCell id="WqO82yuMAQhep9-diVYG-18" value="Baseline&amp;nbsp; Data Post-execution" style="shape=cylinder3;whiteSpace=wrap;html=1;boundedLbl=1;backgroundOutline=1;size=15;fillColor=#ffe6cc;strokeColor=#d79b00;" vertex="1" parent="1">
          <mxGeometry x="300" y="437.5" width="80" height="80" as="geometry" />
        </mxCell>
        <mxCell id="WqO82yuMAQhep9-diVYG-19" style="edgeStyle=orthogonalEdgeStyle;rounded=0;orthogonalLoop=1;jettySize=auto;html=1;exitX=1;exitY=0;exitDx=0;exitDy=52.5;exitPerimeter=0;entryX=0.75;entryY=1;entryDx=0;entryDy=0;" edge="1" parent="1" source="WqO82yuMAQhep9-diVYG-20" target="WqO82yuMAQhep9-diVYG-16">
          <mxGeometry relative="1" as="geometry" />
        </mxCell>
        <mxCell id="WqO82yuMAQhep9-diVYG-20" value="Post-Modernization Execution Data" style="shape=cylinder3;whiteSpace=wrap;html=1;boundedLbl=1;backgroundOutline=1;size=15;fillColor=#d5e8d4;gradientColor=#97d077;strokeColor=#82b366;" vertex="1" parent="1">
          <mxGeometry x="490" y="437.5" width="100" height="80" as="geometry" />
        </mxCell>
        <mxCell id="WqO82yuMAQhep9-diVYG-21" value="" style="shape=flexArrow;endArrow=classic;startArrow=classic;html=1;rounded=0;dashed=1;edgeStyle=orthogonalEdgeStyle;" edge="1" parent="1">
          <mxGeometry width="100" height="100" relative="1" as="geometry">
            <mxPoint x="247.5" y="267.5" as="sourcePoint" />
            <mxPoint x="247.5" y="177.5" as="targetPoint" />
          </mxGeometry>
        </mxCell>
        <mxCell id="WqO82yuMAQhep9-diVYG-22" value="&lt;font style=&quot;font-size: 14px&quot;&gt;&lt;b&gt;Side by side testing&lt;/b&gt;&lt;/font&gt;" style="text;html=1;strokeColor=none;fillColor=none;align=center;verticalAlign=middle;whiteSpace=wrap;rounded=0;" vertex="1" parent="1">
          <mxGeometry x="252.5" y="207.5" width="90" height="30" as="geometry" />
        </mxCell>
        <mxCell id="WqO82yuMAQhep9-diVYG-28" style="edgeStyle=orthogonalEdgeStyle;rounded=0;orthogonalLoop=1;jettySize=auto;html=1;exitX=1;exitY=0.5;exitDx=0;exitDy=0;entryX=0;entryY=0.5;entryDx=0;entryDy=0;" edge="1" parent="1" source="WqO82yuMAQhep9-diVYG-29" target="WqO82yuMAQhep9-diVYG-12">
          <mxGeometry relative="1" as="geometry" />
        </mxCell>
        <mxCell id="WqO82yuMAQhep9-diVYG-29" value="Baseline Test Data Provisioning" style="shape=process;whiteSpace=wrap;html=1;backgroundOutline=1;fillColor=#d5e8d4;gradientColor=#97d077;strokeColor=#82b366;" vertex="1" parent="1">
          <mxGeometry x="60" y="267.5" width="120" height="60" as="geometry" />
        </mxCell>
        <mxCell id="WqO82yuMAQhep9-diVYG-43" style="edgeStyle=orthogonalEdgeStyle;rounded=0;orthogonalLoop=1;jettySize=auto;html=1;exitX=1;exitY=0.5;exitDx=0;exitDy=0;entryX=0;entryY=0.5;entryDx=0;entryDy=0;" edge="1" parent="1" source="WqO82yuMAQhep9-diVYG-33" target="WqO82yuMAQhep9-diVYG-29">
          <mxGeometry relative="1" as="geometry" />
        </mxCell>
        <mxCell id="WqO82yuMAQhep9-diVYG-33" value="Test Cases Generation" style="shape=document;whiteSpace=wrap;html=1;boundedLbl=1;" vertex="1" parent="1">
          <mxGeometry x="-160" y="257.5" width="120" height="80" as="geometry" />
        </mxCell>
        <mxCell id="WqO82yuMAQhep9-diVYG-34" value="Impacted Modules" style="swimlane;fontStyle=0;childLayout=stackLayout;horizontal=1;startSize=30;horizontalStack=0;resizeParent=1;resizeParentMax=0;resizeLast=0;collapsible=1;marginBottom=0;whiteSpace=wrap;html=1;" vertex="1" parent="1">
          <mxGeometry x="-370" y="230" width="140" height="120" as="geometry" />
        </mxCell>
        <mxCell id="WqO82yuMAQhep9-diVYG-35" value="COBOL" style="text;strokeColor=none;fillColor=none;align=left;verticalAlign=middle;spacingLeft=4;spacingRight=4;overflow=hidden;points=[[0,0.5],[1,0.5]];portConstraint=eastwest;rotatable=0;whiteSpace=wrap;html=1;" vertex="1" parent="WqO82yuMAQhep9-diVYG-34">
          <mxGeometry y="30" width="140" height="30" as="geometry" />
        </mxCell>
        <mxCell id="WqO82yuMAQhep9-diVYG-37" value="Java" style="text;strokeColor=none;fillColor=none;align=left;verticalAlign=middle;spacingLeft=4;spacingRight=4;overflow=hidden;points=[[0,0.5],[1,0.5]];portConstraint=eastwest;rotatable=0;whiteSpace=wrap;html=1;" vertex="1" parent="WqO82yuMAQhep9-diVYG-34">
          <mxGeometry y="60" width="140" height="30" as="geometry" />
        </mxCell>
        <mxCell id="WqO82yuMAQhep9-diVYG-36" value="Obsolete/ Exceptions" style="text;strokeColor=none;fillColor=none;align=left;verticalAlign=middle;spacingLeft=4;spacingRight=4;overflow=hidden;points=[[0,0.5],[1,0.5]];portConstraint=eastwest;rotatable=0;whiteSpace=wrap;html=1;" vertex="1" parent="WqO82yuMAQhep9-diVYG-34">
          <mxGeometry y="90" width="140" height="30" as="geometry" />
        </mxCell>
        <mxCell id="WqO82yuMAQhep9-diVYG-38" style="edgeStyle=orthogonalEdgeStyle;rounded=0;orthogonalLoop=1;jettySize=auto;html=1;exitX=1;exitY=0.5;exitDx=0;exitDy=0;" edge="1" parent="1" target="WqO82yuMAQhep9-diVYG-33">
          <mxGeometry relative="1" as="geometry">
            <mxPoint x="-229.99999999999977" y="297.5" as="sourcePoint" />
          </mxGeometry>
        </mxCell>
        <mxCell id="WqO82yuMAQhep9-diVYG-39" value="Provision Pre-Modernization Test Environment" style="shape=process;whiteSpace=wrap;html=1;backgroundOutline=1;fillColor=#f8cecc;gradientColor=#ea6b66;strokeColor=#b85450;" vertex="1" parent="1">
          <mxGeometry x="-160" y="10" width="360" height="60" as="geometry" />
        </mxCell>
        <mxCell id="WqO82yuMAQhep9-diVYG-40" value="Provision Post-Modernization Test Environment" style="shape=process;whiteSpace=wrap;html=1;backgroundOutline=1;fillColor=#f8cecc;gradientColor=#ea6b66;strokeColor=#b85450;" vertex="1" parent="1">
          <mxGeometry x="-160" y="554" width="360" height="60" as="geometry" />
        </mxCell>
        <mxCell id="WqO82yuMAQhep9-diVYG-44" style="edgeStyle=orthogonalEdgeStyle;rounded=0;orthogonalLoop=1;jettySize=auto;html=1;entryX=0;entryY=0.25;entryDx=0;entryDy=0;exitX=0.5;exitY=0;exitDx=0;exitDy=0;" edge="1" parent="1" source="WqO82yuMAQhep9-diVYG-53" target="WqO82yuMAQhep9-diVYG-8">
          <mxGeometry relative="1" as="geometry">
            <mxPoint x="1010" y="180" as="sourcePoint" />
            <Array as="points">
              <mxPoint x="945" y="90" />
              <mxPoint x="-10" y="90" />
              <mxPoint x="-10" y="133" />
            </Array>
          </mxGeometry>
        </mxCell>
        <mxCell id="WqO82yuMAQhep9-diVYG-48" value="Handover for Regression Testing" style="shape=process;whiteSpace=wrap;html=1;backgroundOutline=1;gradientColor=#7ea6e0;fillColor=#dae8fc;strokeColor=#6c8ebf;" vertex="1" parent="1">
          <mxGeometry x="1080" y="210" width="130" height="60" as="geometry" />
        </mxCell>
        <mxCell id="WqO82yuMAQhep9-diVYG-55" style="edgeStyle=orthogonalEdgeStyle;rounded=0;orthogonalLoop=1;jettySize=auto;html=1;exitX=0.5;exitY=1;exitDx=0;exitDy=0;entryX=0;entryY=0.75;entryDx=0;entryDy=0;" edge="1" parent="1" source="WqO82yuMAQhep9-diVYG-53" target="WqO82yuMAQhep9-diVYG-29">
          <mxGeometry relative="1" as="geometry">
            <Array as="points">
              <mxPoint x="945" y="530" />
              <mxPoint x="40" y="530" />
              <mxPoint x="40" y="313" />
            </Array>
          </mxGeometry>
        </mxCell>
        <mxCell id="WqO82yuMAQhep9-diVYG-56" style="edgeStyle=orthogonalEdgeStyle;rounded=0;orthogonalLoop=1;jettySize=auto;html=1;exitX=1;exitY=0.5;exitDx=0;exitDy=0;entryX=0;entryY=0.5;entryDx=0;entryDy=0;" edge="1" parent="1" source="WqO82yuMAQhep9-diVYG-53" target="WqO82yuMAQhep9-diVYG-48">
          <mxGeometry relative="1" as="geometry" />
        </mxCell>
        <mxCell id="WqO82yuMAQhep9-diVYG-62" style="edgeStyle=orthogonalEdgeStyle;rounded=0;orthogonalLoop=1;jettySize=auto;html=1;exitX=1;exitY=0.5;exitDx=0;exitDy=0;entryX=0;entryY=0.5;entryDx=0;entryDy=0;" edge="1" parent="1" source="WqO82yuMAQhep9-diVYG-53" target="WqO82yuMAQhep9-diVYG-61">
          <mxGeometry relative="1" as="geometry">
            <Array as="points">
              <mxPoint x="1020" y="240" />
              <mxPoint x="1020" y="330" />
            </Array>
          </mxGeometry>
        </mxCell>
        <mxCell id="WqO82yuMAQhep9-diVYG-53" value="Issues/Defects Found ?" style="rhombus;whiteSpace=wrap;html=1;" vertex="1" parent="1">
          <mxGeometry x="890" y="190" width="110" height="100" as="geometry" />
        </mxCell>
        <mxCell id="WqO82yuMAQhep9-diVYG-57" value="YES" style="text;html=1;strokeColor=none;fillColor=none;align=center;verticalAlign=middle;whiteSpace=wrap;rounded=0;" vertex="1" parent="1">
          <mxGeometry x="960" y="117.5" width="60" height="30" as="geometry" />
        </mxCell>
        <mxCell id="WqO82yuMAQhep9-diVYG-58" value="YES" style="text;html=1;strokeColor=none;fillColor=none;align=center;verticalAlign=middle;whiteSpace=wrap;rounded=0;" vertex="1" parent="1">
          <mxGeometry x="960" y="370" width="60" height="30" as="geometry" />
        </mxCell>
        <mxCell id="WqO82yuMAQhep9-diVYG-59" value="No" style="text;html=1;strokeColor=none;fillColor=none;align=center;verticalAlign=middle;whiteSpace=wrap;rounded=0;" vertex="1" parent="1">
          <mxGeometry x="1010" y="240" width="60" height="30" as="geometry" />
        </mxCell>
        <mxCell id="WqO82yuMAQhep9-diVYG-61" value="Handover for Performance Testing" style="shape=process;whiteSpace=wrap;html=1;backgroundOutline=1;gradientColor=#7ea6e0;fillColor=#dae8fc;strokeColor=#6c8ebf;" vertex="1" parent="1">
          <mxGeometry x="1080" y="300" width="130" height="60" as="geometry" />
        </mxCell>
      </root>
    </mxGraphModel>
  </diagram>
  <diagram id="UNofo1oD9fVsMr8ZcupG" name="Page-2">
    <mxGraphModel dx="1781" dy="647" grid="1" gridSize="10" guides="1" tooltips="1" connect="1" arrows="1" fold="1" page="1" pageScale="1" pageWidth="827" pageHeight="1169" math="0" shadow="0">
      <root>
        <mxCell id="0" />
        <mxCell id="1" parent="0" />
        <mxCell id="orEndYyQ-1OZKGBUq193-45" style="edgeStyle=orthogonalEdgeStyle;rounded=0;orthogonalLoop=1;jettySize=auto;html=1;exitX=1;exitY=0.5;exitDx=0;exitDy=0;entryX=0;entryY=0.25;entryDx=0;entryDy=0;" edge="1" parent="1" source="orEndYyQ-1OZKGBUq193-15" target="orEndYyQ-1OZKGBUq193-27">
          <mxGeometry relative="1" as="geometry" />
        </mxCell>
        <mxCell id="orEndYyQ-1OZKGBUq193-15" value="&lt;div&gt;Existing Test Cases &lt;br&gt;&lt;/div&gt;&lt;div&gt;from ALM&lt;/div&gt;" style="shape=document;whiteSpace=wrap;html=1;boundedLbl=1;fillColor=#ffe6cc;strokeColor=#d79b00;" vertex="1" parent="1">
          <mxGeometry x="-160" y="120" width="130" height="80" as="geometry" />
        </mxCell>
        <mxCell id="orEndYyQ-1OZKGBUq193-44" style="edgeStyle=orthogonalEdgeStyle;rounded=0;orthogonalLoop=1;jettySize=auto;html=1;exitX=1;exitY=0.25;exitDx=0;exitDy=0;entryX=0;entryY=0.5;entryDx=0;entryDy=0;" edge="1" parent="1" source="orEndYyQ-1OZKGBUq193-18" target="orEndYyQ-1OZKGBUq193-27">
          <mxGeometry relative="1" as="geometry" />
        </mxCell>
        <mxCell id="orEndYyQ-1OZKGBUq193-18" value="&lt;div&gt;New Test Cases&amp;nbsp;&lt;/div&gt;" style="shape=document;whiteSpace=wrap;html=1;boundedLbl=1;fillColor=#d5e8d4;gradientColor=#97d077;strokeColor=#82b366;" vertex="1" parent="1">
          <mxGeometry x="-160" y="280" width="130" height="80" as="geometry" />
        </mxCell>
        <mxCell id="orEndYyQ-1OZKGBUq193-19" style="edgeStyle=orthogonalEdgeStyle;rounded=0;orthogonalLoop=1;jettySize=auto;html=1;exitX=1;exitY=0.5;exitDx=0;exitDy=0;entryX=0;entryY=0.5;entryDx=0;entryDy=0;" edge="1" parent="1" source="orEndYyQ-1OZKGBUq193-39" target="orEndYyQ-1OZKGBUq193-18">
          <mxGeometry relative="1" as="geometry">
            <mxPoint x="-200" y="280" as="sourcePoint" />
          </mxGeometry>
        </mxCell>
        <mxCell id="orEndYyQ-1OZKGBUq193-20" value="DTCC SME to Support" style="shape=umlActor;verticalLabelPosition=bottom;verticalAlign=top;html=1;outlineConnect=0;" vertex="1" parent="1">
          <mxGeometry x="-230" y="300" width="20" height="40" as="geometry" />
        </mxCell>
        <mxCell id="orEndYyQ-1OZKGBUq193-49" style="edgeStyle=orthogonalEdgeStyle;rounded=0;orthogonalLoop=1;jettySize=auto;html=1;exitX=1;exitY=0.5;exitDx=0;exitDy=0;entryX=0;entryY=0.5;entryDx=0;entryDy=0;" edge="1" parent="1" source="orEndYyQ-1OZKGBUq193-21" target="orEndYyQ-1OZKGBUq193-46">
          <mxGeometry relative="1" as="geometry" />
        </mxCell>
        <mxCell id="orEndYyQ-1OZKGBUq193-21" value="Automate Test Cases using Jagacy 3270" style="shape=process;whiteSpace=wrap;html=1;backgroundOutline=1;fillColor=#d5e8d4;gradientColor=#97d077;strokeColor=#82b366;" vertex="1" parent="1">
          <mxGeometry x="270" y="205" width="120" height="60" as="geometry" />
        </mxCell>
        <mxCell id="orEndYyQ-1OZKGBUq193-23" style="edgeStyle=orthogonalEdgeStyle;rounded=0;orthogonalLoop=1;jettySize=auto;html=1;exitX=1;exitY=0.25;exitDx=0;exitDy=0;entryX=0;entryY=0.5;entryDx=0;entryDy=0;" edge="1" parent="1" source="orEndYyQ-1OZKGBUq193-27" target="orEndYyQ-1OZKGBUq193-29">
          <mxGeometry relative="1" as="geometry">
            <mxPoint x="160" y="170" as="sourcePoint" />
          </mxGeometry>
        </mxCell>
        <mxCell id="orEndYyQ-1OZKGBUq193-43" style="edgeStyle=orthogonalEdgeStyle;rounded=0;orthogonalLoop=1;jettySize=auto;html=1;exitX=1;exitY=0.5;exitDx=0;exitDy=0;entryX=0;entryY=0.5;entryDx=0;entryDy=0;" edge="1" parent="1" source="orEndYyQ-1OZKGBUq193-27" target="orEndYyQ-1OZKGBUq193-21">
          <mxGeometry relative="1" as="geometry" />
        </mxCell>
        <mxCell id="orEndYyQ-1OZKGBUq193-27" value="&lt;div&gt;Test Cases&amp;nbsp;&lt;/div&gt;&lt;div&gt;&amp;nbsp;for Side by Side Testing&lt;br&gt;&lt;/div&gt;" style="shape=process;whiteSpace=wrap;html=1;backgroundOutline=1;gradientColor=#97d077;fillColor=#d5e8d4;strokeColor=#82b366;" vertex="1" parent="1">
          <mxGeometry x="30" y="205" width="120" height="60" as="geometry" />
        </mxCell>
        <mxCell id="orEndYyQ-1OZKGBUq193-28" style="edgeStyle=orthogonalEdgeStyle;rounded=0;orthogonalLoop=1;jettySize=auto;html=1;exitX=0.25;exitY=1;exitDx=0;exitDy=0;entryX=0;entryY=0.25;entryDx=0;entryDy=0;" edge="1" parent="1" source="orEndYyQ-1OZKGBUq193-29" target="orEndYyQ-1OZKGBUq193-21">
          <mxGeometry relative="1" as="geometry" />
        </mxCell>
        <mxCell id="orEndYyQ-1OZKGBUq193-29" value="Reuse Existing Automated Test Scripts" style="rounded=0;whiteSpace=wrap;html=1;fillColor=#ffe6cc;strokeColor=#d79b00;" vertex="1" parent="1">
          <mxGeometry x="200" y="120" width="120" height="60" as="geometry" />
        </mxCell>
        <mxCell id="orEndYyQ-1OZKGBUq193-34" value="" style="shape=flexArrow;endArrow=classic;startArrow=classic;html=1;rounded=0;exitX=0.5;exitY=0;exitDx=0;exitDy=0;exitPerimeter=0;entryX=0.5;entryY=1;entryDx=0;entryDy=0;entryPerimeter=0;endWidth=6;endSize=3.67;startWidth=6;startSize=3.67;" edge="1" parent="1" target="orEndYyQ-1OZKGBUq193-16">
          <mxGeometry width="100" height="100" relative="1" as="geometry">
            <mxPoint x="350" y="560" as="sourcePoint" />
            <mxPoint x="580" y="330" as="targetPoint" />
          </mxGeometry>
        </mxCell>
        <mxCell id="orEndYyQ-1OZKGBUq193-41" style="edgeStyle=orthogonalEdgeStyle;rounded=0;orthogonalLoop=1;jettySize=auto;html=1;exitX=1;exitY=0.25;exitDx=0;exitDy=0;entryX=0;entryY=0.5;entryDx=0;entryDy=0;" edge="1" parent="1" source="orEndYyQ-1OZKGBUq193-37" target="orEndYyQ-1OZKGBUq193-15">
          <mxGeometry relative="1" as="geometry" />
        </mxCell>
        <mxCell id="orEndYyQ-1OZKGBUq193-37" value="Impacted Modules" style="swimlane;fontStyle=0;childLayout=stackLayout;horizontal=1;startSize=30;horizontalStack=0;resizeParent=1;resizeParentMax=0;resizeLast=0;collapsible=1;marginBottom=0;whiteSpace=wrap;html=1;" vertex="1" parent="1">
          <mxGeometry x="-360" y="190" width="140" height="90" as="geometry" />
        </mxCell>
        <mxCell id="orEndYyQ-1OZKGBUq193-38" value="COBOL" style="text;strokeColor=none;fillColor=none;align=left;verticalAlign=middle;spacingLeft=4;spacingRight=4;overflow=hidden;points=[[0,0.5],[1,0.5]];portConstraint=eastwest;rotatable=0;whiteSpace=wrap;html=1;" vertex="1" parent="orEndYyQ-1OZKGBUq193-37">
          <mxGeometry y="30" width="140" height="30" as="geometry" />
        </mxCell>
        <mxCell id="orEndYyQ-1OZKGBUq193-39" value="JAVA" style="text;strokeColor=none;fillColor=none;align=left;verticalAlign=middle;spacingLeft=4;spacingRight=4;overflow=hidden;points=[[0,0.5],[1,0.5]];portConstraint=eastwest;rotatable=0;whiteSpace=wrap;html=1;" vertex="1" parent="orEndYyQ-1OZKGBUq193-37">
          <mxGeometry y="60" width="140" height="30" as="geometry" />
        </mxCell>
        <mxCell id="orEndYyQ-1OZKGBUq193-50" style="edgeStyle=orthogonalEdgeStyle;rounded=0;orthogonalLoop=1;jettySize=auto;html=1;exitX=1;exitY=0.25;exitDx=0;exitDy=0;entryX=0;entryY=0.5;entryDx=0;entryDy=0;" edge="1" parent="1" source="orEndYyQ-1OZKGBUq193-46" target="orEndYyQ-1OZKGBUq193-47">
          <mxGeometry relative="1" as="geometry" />
        </mxCell>
        <mxCell id="orEndYyQ-1OZKGBUq193-51" style="edgeStyle=orthogonalEdgeStyle;rounded=0;orthogonalLoop=1;jettySize=auto;html=1;exitX=1;exitY=0.75;exitDx=0;exitDy=0;entryX=0;entryY=0.5;entryDx=0;entryDy=0;" edge="1" parent="1" source="orEndYyQ-1OZKGBUq193-46" target="orEndYyQ-1OZKGBUq193-48">
          <mxGeometry relative="1" as="geometry" />
        </mxCell>
        <mxCell id="orEndYyQ-1OZKGBUq193-46" value="Side by Side Testing" style="shape=process;whiteSpace=wrap;html=1;backgroundOutline=1;fillColor=#d5e8d4;gradientColor=#97d077;strokeColor=#82b366;" vertex="1" parent="1">
          <mxGeometry x="440" y="205" width="120" height="60" as="geometry" />
        </mxCell>
        <mxCell id="orEndYyQ-1OZKGBUq193-47" value="Regression Testing" style="shape=process;whiteSpace=wrap;html=1;backgroundOutline=1;fillColor=#ffe6cc;strokeColor=#d79b00;" vertex="1" parent="1">
          <mxGeometry x="620" y="120" width="120" height="60" as="geometry" />
        </mxCell>
        <mxCell id="orEndYyQ-1OZKGBUq193-48" value="Performance Testing" style="shape=process;whiteSpace=wrap;html=1;backgroundOutline=1;fillColor=#ffe6cc;strokeColor=#d79b00;" vertex="1" parent="1">
          <mxGeometry x="620" y="280" width="120" height="60" as="geometry" />
        </mxCell>
        <mxCell id="orEndYyQ-1OZKGBUq193-56" style="edgeStyle=orthogonalEdgeStyle;rounded=0;orthogonalLoop=1;jettySize=auto;html=1;exitX=1;exitY=0.25;exitDx=0;exitDy=0;entryX=0;entryY=0.25;entryDx=0;entryDy=0;" edge="1" parent="1" source="orEndYyQ-1OZKGBUq193-52" target="orEndYyQ-1OZKGBUq193-47">
          <mxGeometry relative="1" as="geometry">
            <Array as="points">
              <mxPoint x="590" y="83" />
              <mxPoint x="590" y="135" />
            </Array>
          </mxGeometry>
        </mxCell>
        <mxCell id="orEndYyQ-1OZKGBUq193-52" value="Impacted Modules" style="swimlane;fontStyle=0;childLayout=stackLayout;horizontal=1;startSize=30;horizontalStack=0;resizeParent=1;resizeParentMax=0;resizeLast=0;collapsible=1;marginBottom=0;whiteSpace=wrap;html=1;" vertex="1" parent="1">
          <mxGeometry x="-360" y="60" width="140" height="90" as="geometry" />
        </mxCell>
        <mxCell id="orEndYyQ-1OZKGBUq193-53" value="Obsolete" style="text;strokeColor=none;fillColor=none;align=left;verticalAlign=middle;spacingLeft=4;spacingRight=4;overflow=hidden;points=[[0,0.5],[1,0.5]];portConstraint=eastwest;rotatable=0;whiteSpace=wrap;html=1;" vertex="1" parent="orEndYyQ-1OZKGBUq193-52">
          <mxGeometry y="30" width="140" height="30" as="geometry" />
        </mxCell>
        <mxCell id="orEndYyQ-1OZKGBUq193-54" value="Decommissioned" style="text;strokeColor=none;fillColor=none;align=left;verticalAlign=middle;spacingLeft=4;spacingRight=4;overflow=hidden;points=[[0,0.5],[1,0.5]];portConstraint=eastwest;rotatable=0;whiteSpace=wrap;html=1;" vertex="1" parent="orEndYyQ-1OZKGBUq193-52">
          <mxGeometry y="60" width="140" height="30" as="geometry" />
        </mxCell>
      </root>
    </mxGraphModel>
  </diagram>
</mxfile>
